<svg xmlns="http://www.w3.org/2000/svg" viewBox="0 0 64 64">
  <defs>
    <linearGradient id="g" x1="8" y1="4" x2="56" y2="60" gradientUnits="userSpaceOnUse">
      <stop offset="0" stop-color="#7c3aed"/>
      <stop offset="0.55" stop-color="#4f46e5"/>
      <stop offset="1" stop-color="#06b6d4"/>
    </linearGradient>
  </defs>
  <polygon points="32,4 56.2,18 56.2,46 32,60 7.8,46 7.8,18" fill="url(#g)"/>
  <g stroke="#fff" stroke-width="2" stroke-linejoin="round" stroke-linecap="round" fill="none" opacity="0.95">
    <polygon points="32,18 44,25 44,39 32,46 20,39 20,25"/>
    <line x1="32" y1="18" x2="32" y2="32"/>
    <line x1="44" y1="25" x2="32" y2="32"/>
    <line x1="44" y1="39" x2="32" y2="32"/>
    <line x1="32" y1="46" x2="32" y2="32"/>
    <line x1="20" y1="39" x2="32" y2="32"/>
    <line x1="20" y1="25" x2="32" y2="32"/>
  </g>
  <g fill="#fff">
    <circle cx="32" cy="18" r="3"/>
    <circle cx="44" cy="25" r="3"/>
    <circle cx="44" cy="39" r="3"/>
    <circle cx="32" cy="46" r="3"/>
    <circle cx="20" cy="39" r="3"/>
    <circle cx="20" cy="25" r="3"/>
    <circle cx="32" cy="32" r="4"/>
  </g>
</svg>
